<svg width="134" height="113" viewBox="0 0 134 113" fill="none" xmlns="http://www.w3.org/2000/svg">
<g clip-path="url(#clip0_26_58)">
<path d="M8.44978 43.3887L4.90272 48.179C4.56046 48.6414 3.82794 48.3961 3.83158 47.8221L3.88817 34.8149C3.89185 34.332 4.43949 34.0542 4.83002 34.3355L15.4373 42.0648C15.901 42.4027 15.6644 43.138 15.0891 43.1387L8.92426 43.1453C8.7364 43.1484 8.56004 43.2366 8.44978 43.3887Z" fill="#122832"/>
</g>
<path d="M8.66563 43.7804C8.60914 43.6611 8.65507 43.5176 8.77215 43.4544C8.89284 43.3896 9.0443 43.4341 9.10968 43.5558C9.58025 44.4285 10.0909 45.2877 10.6264 46.1086C10.7022 46.2244 10.669 46.3784 10.5544 46.4537C10.4397 46.529 10.2849 46.496 10.2096 46.3812C9.66618 45.5485 9.14866 44.6771 8.6721 43.7917C8.66948 43.7885 8.66777 43.7849 8.66563 43.7804ZM11.9333 48.783C11.8845 48.6799 11.9113 48.5544 12.0045 48.4804C12.1122 48.3951 12.2695 48.4147 12.354 48.523C12.9694 49.3072 13.6208 50.0622 14.2915 50.7693C14.3864 50.8693 14.3826 51.0271 14.2823 51.1211C14.1824 51.2159 14.0257 51.2116 13.9308 51.1116C13.2505 50.3935 12.5877 49.6261 11.9632 48.8297C11.9509 48.8155 11.9414 48.8001 11.9333 48.783ZM16.0469 53.1118C16.0062 53.0259 16.0165 52.9193 16.0829 52.8424C16.1727 52.738 16.3298 52.7267 16.4343 52.8166C17.1854 53.4647 17.9729 54.0756 18.7746 54.6322C18.8869 54.7107 18.9163 54.8661 18.8371 54.9788C18.7591 55.0921 18.6035 55.1204 18.4907 55.041C17.6745 54.4747 16.8733 53.8537 16.1095 53.1928C16.0823 53.1703 16.0614 53.1425 16.0469 53.1118ZM20.9501 56.5103C20.9171 56.4407 20.9166 56.3579 20.9561 56.285C21.0217 56.1643 21.1728 56.1193 21.2934 56.1851C21.8599 56.4923 22.4451 56.7829 23.033 57.049C23.338 57.1868 23.6529 57.3221 23.968 57.4507C24.0956 57.5031 24.1565 57.648 24.1051 57.7753C24.0537 57.9025 23.9081 57.9637 23.7809 57.9122C23.4605 57.7817 23.1398 57.6435 22.8281 57.5034C22.2292 57.2326 21.6325 56.9363 21.0558 56.624C21.0086 56.5965 20.9719 56.5564 20.9501 56.5103ZM26.4716 58.7707C26.4463 58.7173 26.4401 58.655 26.4574 58.5937C26.4964 58.4613 26.6343 58.386 26.7667 58.4252C27.699 58.6997 28.6683 58.9358 29.6471 59.1264C29.7824 59.1531 29.8708 59.2838 29.8438 59.4183C29.8173 59.5537 29.6867 59.6421 29.5523 59.615C28.5585 59.4204 27.574 59.1805 26.627 58.9029C26.5555 58.8825 26.5011 58.833 26.4716 58.7707ZM32.328 59.9221C32.3091 59.8823 32.3007 59.8365 32.3053 59.7901C32.3198 59.6526 32.4421 59.5538 32.5785 59.5689C33.5573 59.6732 34.5531 59.7363 35.5376 59.7571C35.6748 59.7596 35.7841 59.8739 35.7817 60.0111C35.7792 60.1484 35.6652 60.2577 35.5281 60.2551C34.5288 60.2335 33.5192 60.1693 32.5265 60.0638C32.4378 60.0538 32.3639 59.998 32.328 59.9221ZM38.2935 60.0481C38.2802 60.0201 38.2724 59.9895 38.2704 59.9572C38.2617 59.8197 38.3647 59.7012 38.5021 59.6926C39.4974 59.6287 40.4887 59.519 41.4478 59.3693C41.5837 59.3481 41.7109 59.4417 41.7326 59.5764C41.7539 59.7124 41.6618 59.84 41.526 59.8612C40.5516 60.0137 39.5451 60.1239 38.535 60.1894C38.4302 60.1969 38.3359 60.1376 38.2935 60.0481ZM41.7726 58.2297C41.7148 58.1076 41.7644 57.9625 41.8854 57.9007C42.0083 57.8381 42.1579 57.8879 42.2196 58.0114C42.6542 58.8734 43.1318 59.7539 43.639 60.6292C43.7084 60.7479 43.6677 60.8999 43.5482 60.9698C43.4292 61.0383 43.2764 60.9978 43.2078 60.8786C42.6959 59.9957 42.214 59.1062 41.7743 58.2355C41.7743 58.2333 41.7734 58.2315 41.7726 58.2297ZM40.5162 55.5171C40.5144 55.5135 40.5132 55.5108 40.5114 55.5071C40.1024 54.5356 39.7501 53.5859 39.4625 52.6842C39.4205 52.5535 39.4932 52.4129 39.6237 52.3711C39.7542 52.3292 39.8952 52.403 39.9367 52.5327C40.2197 53.4201 40.5665 54.3558 40.97 55.3133C41.0233 55.4397 40.9643 55.586 40.8371 55.6395C40.714 55.6923 40.5726 55.6364 40.5162 55.5171ZM44.7671 63.4069C44.7145 63.2957 44.7513 63.161 44.8559 63.0926C44.9706 63.0173 45.1254 63.0503 45.1999 63.1655C45.735 63.9877 46.3031 64.8143 46.8872 65.621C46.9675 65.7324 46.9428 65.8879 46.8316 65.9682C46.7204 66.0485 46.565 66.0236 46.4837 65.9127C45.8953 65.0991 45.3229 64.2658 44.7826 63.4372C44.7778 63.4273 44.7722 63.4177 44.7671 63.4069ZM38.7483 49.8167C38.7389 49.7968 38.7317 49.7748 38.7277 49.7523C38.6158 49.1049 38.5496 48.4911 38.531 47.9312C38.52 47.6022 38.5067 47.1958 38.5084 46.7302C38.5086 46.5929 38.6204 46.4814 38.7581 46.4826C38.8953 46.4829 39.0064 46.5963 39.0058 46.7327C39.0042 47.1893 39.0172 47.5904 39.0278 47.914C39.0455 48.4533 39.1091 49.0429 39.2171 49.6678C39.2406 49.8039 39.1499 49.932 39.014 49.9554C38.9027 49.9749 38.7949 49.9152 38.7483 49.8167ZM48.2713 68.2554C48.223 68.1533 48.2488 68.0282 48.3411 67.9546C48.4484 67.8684 48.6049 67.8862 48.6911 67.9937C49.3081 68.7671 49.9516 69.5358 50.6037 70.2783C50.6945 70.3814 50.684 70.5391 50.5811 70.6298C50.4782 70.7206 50.3207 70.71 50.2299 70.6069C49.573 69.8589 48.9243 69.0838 48.302 68.304C48.2894 68.2889 48.2794 68.2726 48.2713 68.2554ZM44.1848 59.1138C44.1784 59.1002 44.1724 59.0853 44.1687 59.0705C44.1335 58.9378 44.2128 58.8018 44.3463 58.7662C45.3291 58.5079 46.2742 58.2 47.1561 57.85C47.2837 57.7995 47.4285 57.8604 47.4799 57.9899C47.5304 58.1176 47.4684 58.2621 47.3404 58.3138C46.4395 58.6706 45.4755 58.9852 44.4742 59.249C44.3561 59.2795 44.2353 59.2205 44.1848 59.1138ZM52.216 72.7505C52.1715 72.6565 52.1896 72.5406 52.2676 72.465C52.3662 72.3696 52.5243 72.3722 52.6197 72.4709C53.3099 73.1865 54.0231 73.8901 54.7396 74.5634C54.8396 74.6577 54.8447 74.8157 54.7506 74.9156C54.6564 75.0155 54.4985 75.0205 54.3986 74.9262C53.6763 74.2479 52.9575 73.537 52.2616 72.8164C52.2436 72.7972 52.2276 72.7749 52.216 72.7505ZM38.8105 43.8641C38.7882 43.8171 38.7804 43.7633 38.791 43.7085C39.0041 42.646 39.3436 41.6776 39.7994 40.8289C39.8646 40.7073 40.0157 40.6624 40.1363 40.7281C40.2578 40.7934 40.3029 40.9446 40.2374 41.0653C39.8043 41.8711 39.4815 42.793 39.2783 43.8065C39.2513 43.9409 39.1203 44.0284 38.985 44.0017C38.9067 43.9857 38.843 43.9328 38.8105 43.8641ZM56.5745 76.845C56.5339 76.7591 56.5437 76.6538 56.6092 76.5774C56.6977 76.4725 56.8553 76.4598 56.9602 76.5485C57.7194 77.1927 58.4999 77.8213 59.2793 78.415C59.3893 78.4979 59.4093 78.6544 59.3265 78.7644C59.2433 78.8735 59.0878 78.8952 58.9774 78.8113C58.1909 78.2121 57.4038 77.5789 56.638 76.9278C56.6104 76.9044 56.5891 76.8758 56.5745 76.845ZM49.7095 56.8891C49.6547 56.7734 49.6966 56.633 49.8083 56.5679C50.697 56.0477 51.4953 55.4695 52.1819 54.849C52.2839 54.7565 52.4415 54.7649 52.5332 54.8675C52.6258 54.9697 52.6176 55.1274 52.5151 55.2191C51.8039 55.8623 50.9775 56.4604 50.0594 56.9979C49.9408 57.0673 49.7884 57.0277 49.7189 56.909C49.7159 56.9027 49.7129 56.8964 49.7095 56.8891ZM61.3327 80.4671C61.2963 80.3902 61.3005 80.2964 61.3508 80.2206C61.4274 80.1069 61.5822 80.0767 61.6963 80.1544C62.523 80.7147 63.3684 81.2517 64.2084 81.7514C64.3267 81.8216 64.3659 81.9745 64.296 82.0928C64.226 82.2111 64.0732 82.2503 63.9549 82.1801C63.1061 81.6757 62.2523 81.1327 61.4177 80.5673C61.3798 80.541 61.3511 80.5059 61.3327 80.4671ZM41.6547 38.7412C41.6077 38.6418 41.6304 38.5193 41.7182 38.4457C42.3225 37.9316 43.007 37.4914 43.7546 37.1375C43.946 37.0469 44.144 36.9609 44.3423 36.8826C44.4698 36.8322 44.6134 36.8926 44.6651 37.023C44.7156 37.1507 44.6527 37.2955 44.5252 37.3459C44.3372 37.4205 44.1492 37.5018 43.9677 37.5877C43.2599 37.9228 42.6116 38.3392 42.0414 38.8249C41.9367 38.9143 41.7792 38.9014 41.6907 38.7962C41.6758 38.7788 41.6637 38.7602 41.6547 38.7412ZM66.4746 83.5202C66.4425 83.4524 66.4407 83.3714 66.4775 83.2997C66.5399 83.1772 66.6903 83.1282 66.8123 83.1921C67.6997 83.6473 68.6046 84.0742 69.5015 84.4608C69.6277 84.515 69.6863 84.6621 69.6323 84.7883C69.5782 84.9146 69.4313 84.9731 69.3051 84.9189C68.3984 84.5282 67.4833 84.0961 66.5857 83.6358C66.5353 83.6087 66.4973 83.5681 66.4746 83.5202ZM54.0474 52.8694C54.0123 52.7953 54.0142 52.7059 54.0609 52.6318C54.3015 52.2435 54.5093 51.8397 54.681 51.432C54.8744 50.972 55.0332 50.4741 55.1537 49.9535C55.1842 49.8195 55.3182 49.7361 55.4521 49.7668C55.586 49.7975 55.6694 49.9317 55.6389 50.0657C55.5125 50.6135 55.3441 51.138 55.1404 51.625C54.9592 52.0571 54.738 52.4839 54.4849 52.8947C54.4122 53.0121 54.2591 53.048 54.1426 52.9748C54.0989 52.9479 54.0671 52.911 54.0474 52.8694ZM47.1169 36.5993C47.1028 36.5695 47.0946 36.5357 47.0926 36.5012C47.0884 36.3638 47.1949 36.2481 47.3331 36.2436C48.3926 36.2078 49.3762 36.3807 50.2568 36.7583L50.356 36.8021C50.4812 36.859 50.5376 37.006 50.4818 37.1309C50.4251 37.2563 50.2782 37.3125 50.1533 37.2565L50.0626 37.2165C49.2489 36.8681 48.3378 36.7085 47.3512 36.7418C47.2479 36.7453 47.158 36.6861 47.1169 36.5993ZM71.9623 85.884C71.9353 85.8271 71.9296 85.759 71.9524 85.695C71.998 85.565 72.1393 85.497 72.2693 85.5428C73.205 85.8711 74.1596 86.1672 75.1035 86.4219C75.2368 86.4584 75.3144 86.5943 75.279 86.7272C75.2436 86.8602 75.107 86.9381 74.9741 86.9026C74.0173 86.644 73.052 86.3441 72.1048 86.0124C72.04 85.9899 71.9901 85.9428 71.9623 85.884ZM55.4589 47.1478C55.4444 47.1171 55.4361 47.0834 55.4351 47.0462C55.4135 46.0783 55.2861 45.0996 55.0574 44.1379C55.025 44.0039 55.1082 43.8693 55.2416 43.8382C55.3755 43.8058 55.5096 43.8884 55.5412 44.0228C55.7781 45.0183 55.9097 46.0315 55.9328 47.0353C55.9362 47.1731 55.8265 47.287 55.6897 47.2898C55.5886 47.2933 55.5 47.2346 55.4589 47.1478ZM52.4141 38.9017C52.3688 38.8059 52.3887 38.6869 52.4712 38.6113C52.5728 38.5179 52.73 38.5254 52.8235 38.6272C53.4761 39.3406 54.0477 40.1931 54.5225 41.1612C54.5816 41.2837 54.5324 41.4342 54.4087 41.495C54.285 41.5558 54.1359 41.5047 54.075 41.3808C53.6216 40.4557 53.0765 39.6426 52.4557 38.9639C52.4387 38.9443 52.4244 38.9234 52.4141 38.9017ZM77.7239 87.4377C77.7021 87.3916 77.6947 87.3386 77.7048 87.2852C77.7304 87.1502 77.8605 87.0609 77.9954 87.0867C78.9654 87.2704 79.9518 87.4187 80.9283 87.5252C81.0647 87.5403 81.164 87.6637 81.1491 87.8002C81.1341 87.9368 81.0118 88.0356 80.8745 88.0209C79.886 87.9124 78.8858 87.7629 77.9033 87.5762C77.8219 87.5606 77.7569 87.5073 77.7239 87.4377ZM83.6525 88.0857C83.6363 88.0513 83.6277 88.0123 83.6286 87.972C83.6319 87.8343 83.7468 87.7268 83.8844 87.7303C84.8661 87.7591 85.8625 87.7488 86.8481 87.6994C86.9854 87.6931 87.1021 87.7994 87.1095 87.9364C87.116 88.0739 87.0112 88.191 86.8738 88.1973C85.8766 88.2478 84.8659 88.2582 83.8707 88.2292C83.7738 88.2252 83.6915 88.168 83.6525 88.0857ZM89.6078 87.7884C89.5971 87.7658 89.5895 87.7406 89.5856 87.7136C89.5675 87.5773 89.6644 87.4528 89.8007 87.4348C90.7745 87.3091 91.759 87.1429 92.7254 86.941C92.8601 86.9127 92.9924 86.9983 93.0199 87.1336C93.0484 87.2684 92.9616 87.4002 92.8278 87.4281C91.8483 87.6329 90.8513 87.8006 89.8649 87.9278C89.7551 87.9432 89.6527 87.8833 89.6078 87.7884ZM95.4487 86.5703C95.4432 86.5585 95.4381 86.5455 95.4343 86.5329C95.396 86.4005 95.4722 86.2627 95.6044 86.2244C96.5482 85.9514 97.4964 85.6386 98.4221 85.2944C98.5509 85.2467 98.6931 85.3089 98.7426 85.4415C98.7904 85.5705 98.7248 85.7144 98.5959 85.7621C97.659 86.1104 96.6991 86.4265 95.7436 86.7029C95.6244 86.7383 95.5005 86.6797 95.4487 86.5703ZM101.044 84.4957C101.044 84.4948 101.044 84.4939 101.043 84.4921C100.986 84.3665 101.041 84.2196 101.166 84.1625C101.359 84.0746 101.551 83.9858 101.744 83.8948C102.441 83.5648 103.14 83.2094 103.823 82.8394C103.944 82.7736 104.096 82.819 104.16 82.9399C104.225 83.0598 104.181 83.2122 104.06 83.2771C103.369 83.6519 102.661 84.0102 101.956 84.344C101.762 84.4359 101.567 84.526 101.373 84.6147C101.249 84.6724 101.103 84.6186 101.044 84.4957ZM106.294 81.6553C106.241 81.5433 106.279 81.4059 106.386 81.3385C107.215 80.8155 108.043 80.2546 108.846 79.6716C108.958 79.5913 109.113 79.6162 109.194 79.7271C109.276 79.838 109.25 79.994 109.139 80.0752C108.327 80.6643 107.49 81.2308 106.653 81.7599C106.537 81.8338 106.383 81.7982 106.31 81.6812C106.303 81.6734 106.299 81.6644 106.294 81.6553ZM111.13 78.1515C111.082 78.0512 111.106 77.9269 111.196 77.8533C111.954 77.2291 112.706 76.5699 113.432 75.8944C113.532 75.8004 113.69 75.8066 113.784 75.907C113.878 76.0075 113.872 76.1653 113.771 76.2592C113.038 76.9417 112.279 77.6075 111.513 78.2387C111.408 78.3263 111.25 78.3112 111.162 78.2046C111.148 78.1868 111.138 78.1696 111.13 78.1515ZM115.503 74.0839C115.46 73.9935 115.475 73.8815 115.548 73.8049C116.228 73.0935 116.899 72.3519 117.543 71.5991C117.633 71.4946 117.789 71.4824 117.894 71.5724C117.999 71.6619 118.011 71.8191 117.921 71.9236C117.272 72.6835 116.594 73.4325 115.907 74.1504C115.812 74.2499 115.654 74.2536 115.555 74.1579C115.533 74.136 115.516 74.111 115.503 74.0839ZM119.386 69.5438C119.347 69.4624 119.354 69.3619 119.413 69.2854C120.009 68.5042 120.595 67.6933 121.156 66.8737C121.234 66.7605 121.388 66.7317 121.502 66.8084C121.615 66.8865 121.644 67.0419 121.567 67.1547C121.002 67.9809 120.411 68.7998 119.809 69.5871C119.726 69.6962 119.569 69.7173 119.46 69.634C119.427 69.6096 119.402 69.5781 119.386 69.5438ZM122.758 64.6105C122.723 64.5373 122.725 64.4479 122.769 64.3737C123.281 63.5352 123.78 62.6673 124.252 61.7939C124.318 61.6733 124.469 61.6283 124.59 61.694C124.71 61.7597 124.755 61.911 124.69 62.0317C124.213 62.9125 123.71 63.7879 123.194 64.634C123.123 64.7509 122.97 64.7887 122.852 64.7163C122.81 64.6899 122.778 64.653 122.758 64.6105ZM125.602 59.3557C125.571 59.2897 125.569 59.2123 125.603 59.141C126.028 58.2514 126.436 57.3377 126.819 56.4243C126.871 56.2975 127.018 56.2381 127.144 56.291C127.271 56.3439 127.332 56.4901 127.278 56.6173C126.893 57.5378 126.48 58.4599 126.052 59.3566C125.992 59.481 125.844 59.5336 125.72 59.4737C125.666 59.4483 125.626 59.4063 125.602 59.3557Z" fill="black"/>
<defs>
<clipPath id="clip0_26_58">
<rect width="13.6288" height="13.6151" fill="white" transform="translate(4.09424 34.0698) rotate(17.5)"/>
</clipPath>
</defs>
</svg>
