<svg width="80" height="31" viewBox="0 0 80 31" fill="none" xmlns="http://www.w3.org/2000/svg">
<path d="M9.9 27.45C10.35 27.48 10.77 27.51 11.19 27.51C17.49 27.51 22.41 23.07 23.37 18C23.61 16.74 22.92 16.05 22.92 16.5C22.05 21.78 16.23 26.79 10.92 26.79C10.56 26.79 10.17 26.76 9.81 26.7C4.2 25.92 1.65 19.86 1.77 15.15C1.95 8.19 6.72 0.959999 13.89 1.2C17.4 1.32 18.63 3.48 18.63 6.18C18.63 9.87 16.32 14.52 14.25 16.2C14.1 16.32 13.98 16.53 14.16 16.62C14.4 16.74 15.6 16.05 15.78 15.9C17.94 14.16 19.8 10.11 19.8 6.6C19.8 3.27 18.12 0.419999 13.47 0.419999C5.64 0.419999 0.6 8.31 0.48 15.24C0.39 21.15 4.11 26.91 9.9 27.45ZM26.0616 20.43C26.1816 20.91 27.1116 21.3 27.0816 20.85C27.2016 19.47 30.3516 16.29 32.0616 16.38C32.0616 16.59 32.0016 16.95 32.0016 17.37C32.0016 18 32.1516 18.78 32.8416 19.29C33.5316 19.74 34.1916 19.89 34.8516 19.89C36.7716 19.89 39.0216 18.75 39.6816 17.76C40.1316 17.1 40.2816 16.14 40.0116 16.47C39.0516 17.76 35.8116 19.02 34.2516 19.02C33.9216 19.02 33.5916 18.96 33.2916 18.81C33.0816 17.94 33.3216 17.1 33.2316 16.38C33.1116 15.99 32.6616 15.63 32.2416 15.51C30.5316 14.97 27.9816 17.37 27.0516 18.42V15.75C27.1116 11.64 27.1716 7.74 27.5616 3.9C27.5616 3.45 26.3916 3.09 26.3916 3.51C26.1816 7.35 26.0316 11.04 26.0316 15.18V19.44C26.0316 20.01 26.0316 20.37 26.0616 20.43ZM51.2505 8.58C51.1305 8.61 51.0105 8.61 50.8905 8.61C51.0705 6.39 51.2805 4.17 51.4605 3C51.5505 2.43 50.1405 1.98 50.0505 2.46C49.9005 4.38 49.6005 6.57 49.1505 8.73C45.5205 9.03 43.3905 9.3 41.3205 9.66C40.8105 9.78 41.4405 10.56 42.0105 10.47C44.3205 10.08 46.5705 9.87 48.9705 9.69C47.7705 14.91 45.5205 19.65 41.5905 19.41C41.0505 19.38 40.6905 19.14 40.4505 18.75C40.2105 18.45 40.1205 18.09 40.0305 17.7C41.5905 18.3 43.3005 16.65 43.1205 15.84C43.0305 15.54 42.8505 15.03 42.4305 14.82C42.0705 14.64 41.7105 14.55 41.3805 14.55C40.7205 14.55 40.1205 14.82 39.7605 15.15C39.2505 15.63 38.7405 16.74 38.8605 17.58C38.8605 19.14 40.6905 20.22 42.1605 20.28C46.2105 20.43 48.5805 15.66 49.5105 12.45L49.3905 14.4C49.3305 15.39 49.2705 17.43 49.2705 19.71C49.2705 23.13 49.3905 27.15 49.8705 29.28C50.1105 29.88 50.9805 30.36 50.8605 29.7C50.4705 28.35 50.3205 25.5 50.3205 22.53C50.3205 19.74 50.4405 16.8 50.5305 14.85C50.5305 14.04 50.6505 11.85 50.8305 9.54C50.8905 9.54 50.9505 9.51 51.0105 9.51C53.2905 9.33 56.8005 9.03 60.0105 9.03C61.8105 9.03 63.4905 9.12 64.8405 9.39C65.0805 9.42 65.2305 9.3 65.2005 9.06C65.0805 8.88 64.7805 8.58 64.5105 8.46C63.4305 8.22 61.8705 8.13 60.1605 8.13C57.2205 8.13 53.8005 8.4 51.2505 8.58ZM42.1305 15.48C42.0105 16.11 40.8105 17.16 40.1205 16.92C40.3905 16.23 40.8705 15.33 42.1305 15.48ZM53.8594 19.83C54.1894 20.04 54.5494 20.13 54.9394 20.13C56.5294 20.13 58.5094 18.6 59.3494 17.85C59.7394 18.93 60.4894 19.5 61.4794 19.74C62.7394 20.04 64.8094 19.08 65.5594 18.33C67.2094 16.68 66.7594 15.93 66.2494 16.44C65.1694 17.64 62.5894 19.17 61.0594 18.87C60.5194 18.72 60.3694 18.12 60.3994 17.61C60.4594 17.04 60.7294 16.5 60.8794 16.05C61.0894 15.69 60.0694 15.03 59.8894 15.36L59.3794 16.05H59.3494C58.5994 15.72 57.7594 15.54 56.9194 15.54C55.8694 15.54 54.8494 15.81 54.0394 16.35C53.2894 16.86 52.9594 17.52 52.9594 18.18C52.9594 18.81 53.2594 19.38 53.8594 19.83ZM54.3994 19.17C53.9494 19.14 53.7694 18.81 53.8594 18.45C54.1894 17.07 56.1694 16.5 57.6694 16.5C58.1194 16.5 58.5394 16.56 58.8394 16.65C57.7894 17.76 55.8394 18.99 54.3994 19.17ZM65.7511 19.56C65.7811 20.04 66.8311 20.31 66.8011 19.92L66.8311 19.23C67.4011 17.97 69.6811 16.53 71.9011 16.29C71.8411 16.65 71.8111 16.98 71.8111 17.31C71.8111 17.85 71.9011 18.36 72.2011 18.81C72.7411 19.59 73.7011 19.95 74.5711 19.95C76.6711 19.95 78.6211 18.36 79.3411 17.43C79.7911 16.86 79.6711 16.2 79.5511 16.26C78.5911 16.74 75.9811 19.11 74.1211 19.11C73.7311 19.11 73.4011 19.02 73.1011 18.78C72.7111 18.21 73.0411 17.07 73.0411 16.56C73.0411 16.11 72.5011 15.57 71.9311 15.51C70.2511 15.33 68.0911 16.41 67.0711 17.16L67.1311 16.14C67.1611 15.96 66.8911 15.69 66.6511 15.54C66.3511 15.42 66.0511 15.45 66.0511 15.66L65.7511 18.66C65.6911 19.02 65.7211 19.32 65.7511 19.56Z" fill="black"/>
</svg>
