<svg width="28" height="28" viewBox="0 0 28 28" fill="none" xmlns="http://www.w3.org/2000/svg">
<path d="M2.7999 6.53333C2.67622 6.53158 2.55343 6.55443 2.43866 6.60055C2.32389 6.64667 2.21943 6.71514 2.13135 6.80198C2.04327 6.88882 1.97333 6.9923 1.92559 7.10641C1.87785 7.22051 1.85327 7.34297 1.85327 7.46666C1.85327 7.59035 1.87785 7.71281 1.92559 7.82691C1.97333 7.94102 2.04327 8.0445 2.13135 8.13134C2.21943 8.21818 2.32389 8.28665 2.43866 8.33277C2.55343 8.37889 2.67622 8.40174 2.7999 8.39999H25.1999C25.3236 8.40174 25.4464 8.37889 25.5611 8.33277C25.6759 8.28665 25.7804 8.21818 25.8684 8.13134C25.9565 8.0445 26.0265 7.94102 26.0742 7.82691C26.1219 7.71281 26.1465 7.59035 26.1465 7.46666C26.1465 7.34297 26.1219 7.22051 26.0742 7.10641C26.0265 6.9923 25.9565 6.88882 25.8684 6.80198C25.7804 6.71514 25.6759 6.64667 25.5611 6.60055C25.4464 6.55443 25.3236 6.53158 25.1999 6.53333H2.7999ZM2.7999 13.0667C2.67622 13.0649 2.55343 13.0878 2.43866 13.1339C2.32389 13.18 2.21943 13.2485 2.13135 13.3353C2.04327 13.4222 1.97333 13.5256 1.92559 13.6397C1.87785 13.7538 1.85327 13.8763 1.85327 14C1.85327 14.1237 1.87785 14.2461 1.92559 14.3602C1.97333 14.4744 2.04327 14.5778 2.13135 14.6647C2.21943 14.7515 2.32389 14.82 2.43866 14.8661C2.55343 14.9122 2.67622 14.9351 2.7999 14.9333H25.1999C25.3236 14.9351 25.4464 14.9122 25.5611 14.8661C25.6759 14.82 25.7804 14.7515 25.8684 14.6647C25.9565 14.5778 26.0265 14.4744 26.0742 14.3602C26.1219 14.2461 26.1465 14.1237 26.1465 14C26.1465 13.8763 26.1219 13.7538 26.0742 13.6397C26.0265 13.5256 25.9565 13.4222 25.8684 13.3353C25.7804 13.2485 25.6759 13.18 25.5611 13.1339C25.4464 13.0878 25.3236 13.0649 25.1999 13.0667H2.7999ZM2.7999 19.6C2.67622 19.5982 2.55343 19.6211 2.43866 19.6672C2.32389 19.7133 2.21943 19.7818 2.13135 19.8686C2.04327 19.9555 1.97333 20.059 1.92559 20.1731C1.87785 20.2872 1.85327 20.4096 1.85327 20.5333C1.85327 20.657 1.87785 20.7795 1.92559 20.8936C1.97333 21.0077 2.04327 21.1112 2.13135 21.198C2.21943 21.2849 2.32389 21.3533 2.43866 21.3994C2.55343 21.4456 2.67622 21.4684 2.7999 21.4667H25.1999C25.3236 21.4684 25.4464 21.4456 25.5611 21.3994C25.6759 21.3533 25.7804 21.2849 25.8684 21.198C25.9565 21.1112 26.0265 21.0077 26.0742 20.8936C26.1219 20.7795 26.1465 20.657 26.1465 20.5333C26.1465 20.4096 26.1219 20.2872 26.0742 20.1731C26.0265 20.059 25.9565 19.9555 25.8684 19.8686C25.7804 19.7818 25.6759 19.7133 25.5611 19.6672C25.4464 19.6211 25.3236 19.5982 25.1999 19.6H2.7999Z" fill="#FF6533"/>
</svg>
